<svg width="14" height="15" viewBox="0 0 14 15" fill="none" xmlns="http://www.w3.org/2000/svg">
<path fill-rule="evenodd" clip-rule="evenodd" d="M1.8501 7.49998C1.8501 4.66498 4.0601 1.84998 7.5001 1.84998C10.2781 1.84998 11.6521 3.90598 12.2371 4.99998H10.5001C10.3675 4.99998 10.2403 5.05265 10.1465 5.14642C10.0528 5.24019 10.0001 5.36737 10.0001 5.49998C10.0001 5.63258 10.0528 5.75976 10.1465 5.85353C10.2403 5.9473 10.3675 5.99998 10.5001 5.99998H13.5001C13.6327 5.99998 13.7599 5.9473 13.8537 5.85353C13.9474 5.75976 14.0001 5.63258 14.0001 5.49998V2.49998C14.0001 2.36737 13.9474 2.24019 13.8537 2.14642C13.7599 2.05265 13.6327 1.99998 13.5001 1.99998C13.3675 1.99998 13.2403 2.05265 13.1465 2.14642C13.0528 2.24019 13.0001 2.36737 13.0001 2.49998V4.31298C12.2961 3.07098 10.6661 0.849976 7.5001 0.849976C3.4371 0.849976 0.850098 4.18498 0.850098 7.49998C0.850098 10.815 3.4371 14.15 7.5001 14.15C9.4441 14.15 11.0621 13.38 12.2141 12.208C12.8254 11.5845 13.3103 10.8486 13.6421 10.041C13.667 9.98024 13.6798 9.91518 13.6796 9.84952C13.6794 9.78386 13.6663 9.71888 13.641 9.65829C13.6157 9.5977 13.5787 9.54268 13.5321 9.49639C13.4856 9.4501 13.4303 9.41343 13.3696 9.38848C13.3089 9.36352 13.2438 9.35078 13.1781 9.35097C13.1125 9.35116 13.0475 9.36428 12.9869 9.38959C12.9263 9.41489 12.8713 9.45188 12.825 9.49845C12.7787 9.54501 12.742 9.60024 12.7171 9.66098C12.4345 10.3489 12.0216 10.9758 11.5011 11.507C10.5301 12.497 9.1651 13.15 7.5001 13.15C4.0601 13.15 1.8501 10.335 1.8501 7.49998Z" fill="white"/>
</svg>
